<svg xmlns="http://www.w3.org/2000/svg" xmlns:xlink="http://www.w3.org/1999/xlink" viewBox="0 0 581 450"><defs><style>.cls-1{fill:#eaeef9;}.cls-2{fill:#fc0;}.cls-3{fill:#fff;}.cls-4{fill:#e3eaf2;}.cls-5{fill:#06afea;}.cls-6{fill:#ced7e2;}.cls-7{fill:#e6edf5;}.cls-8{fill:#03a8db;}.cls-9{fill:url(#linear-gradient);}.cls-10{opacity:0.67;isolation:isolate;fill:url(#linear-gradient-2);}</style><linearGradient id="linear-gradient" x1="230.35" y1="-1398.64" x2="264.11" y2="-1432.32" gradientTransform="matrix(1, 0, 0, -1, 0, -1362.19)" gradientUnits="userSpaceOnUse"><stop offset="0" stop-color="#e2b700"/><stop offset="1" stop-color="#fc0"/></linearGradient><linearGradient id="linear-gradient-2" x1="545.69" y1="-1625.91" x2="562.45" y2="-1642.56" gradientTransform="matrix(1, 0, 0, -1, 0, -1362.19)" gradientUnits="userSpaceOnUse"><stop offset="0" stop-color="#038fdb"/><stop offset="1" stop-color="#06afea" stop-opacity="0"/></linearGradient></defs><g id="Layer_2" data-name="Layer 2"><g id="Layer_1-2" data-name="Layer 1"><path class="cls-1" d="M564.37,355.33a1.93,1.93,0,0,1,.15.82l-1.21,33.64a2,2,0,0,1-3.06,1.62L546,382.48h0l-14.25-8.93a2,2,0,0,1,.13-3.48l29.71-15.76a2,2,0,0,1,2.79,1Zm-4.94,30.84,1-26.69L536.81,372Z"/><path class="cls-1" d="M122.76,122.83a2.33,2.33,0,0,1-1.6-.63L102.4,104.59a2.34,2.34,0,1,1,3.2-3.41l18.76,17.6a2.34,2.34,0,0,1-1.6,4Z"/><path class="cls-1" d="M104.58,123.42a2.3,2.3,0,0,1-1.6-.64,2.35,2.35,0,0,1-.11-3.31l17.6-18.77a2.34,2.34,0,0,1,3.41,3.21l-17.59,18.77A2.37,2.37,0,0,1,104.58,123.42Z"/><path class="cls-1" d="M18.89,291.3a18.91,18.91,0,1,1,18.89-18.91A18.92,18.92,0,0,1,18.89,291.3Zm0-32.68a13.78,13.78,0,1,0,13.76,13.77A13.78,13.78,0,0,0,18.89,258.62Z"/><path class="cls-1" d="M442.13,79.39a15,15,0,1,0-15-15A15,15,0,0,0,442.13,79.39Z"/><path class="cls-1" d="M297.61,445c108.09,0,195.72-87.56,195.72-195.58S405.7,53.81,297.61,53.81,101.89,141.38,101.89,249.4,189.52,445,297.61,445Z"/><path class="cls-2" d="M434.26,419a6.3,6.3,0,1,0-6.3-6.3A6.3,6.3,0,0,0,434.26,419Z"/><path class="cls-3" d="M240.12,440.66H68.42a7.06,7.06,0,0,1-7.09-7.09V183.28a7.06,7.06,0,0,1,7.09-7.08h171.7a7.06,7.06,0,0,1,7.09,7.08V433.57A7.06,7.06,0,0,1,240.12,440.66Z"/><path class="cls-4" d="M188.92,312.36a3.58,3.58,0,0,1-.39,2c-.4,1.18-.4,2.76-.79,3.93-.39.79-.39,1.19-.79,2a13.94,13.94,0,0,1-1.57,3.55v.39c-.4.39-.4,1.18-.79,1.57s-.79,1.18-1.18,1.58l12.21,10.62c.39-.78.78-1.18,1.18-2a42.8,42.8,0,0,0,3.15-5.9c.39-.79.39-1.18.79-2,.79-2,1.57-3.93,2.36-5.9,0-.39.39-1.18.39-1.57.4-1.18.4-2.37.79-3.54,0-.4.4-1.18.4-1.58a2.37,2.37,0,0,1,.39-1.57v-2H188.92Zm-34.26,30.3c-18.9,0-34.65-15.34-34.65-34.23a34.45,34.45,0,0,1,29.93-34.24V258.05c-25.6,2-45.68,24-45.68,50.38a50.91,50.91,0,0,0,50.8,50.77,50,50,0,0,0,35.44-14.57L178.29,334A35.66,35.66,0,0,1,154.66,342.66ZM159,258.05v16.14a34.27,34.27,0,0,1,29.93,29.51h16.15C203.1,279.3,183.41,260,159,258.05Z"/><path class="cls-2" d="M205.46,303.7H189.32a33.88,33.88,0,0,0-29.93-29.51V258.05A50.82,50.82,0,0,1,205.46,303.7Z"/><path class="cls-5" d="M205.46,312.36v2a2.41,2.41,0,0,1-.39,1.58,2.37,2.37,0,0,1-.39,1.57c-.4,1.18-.4,2.36-.79,3.54,0,.39-.4,1.18-.4,1.57-.78,2-1.18,3.94-2.36,5.91-.39.78-.39,1.18-.79,2a42.87,42.87,0,0,1-3.15,5.9c-.39.79-.79,1.18-1.18,2l-12.6-11c.39-.4.79-1.18,1.18-1.58a3,3,0,0,0,.79-1.57v-.39c.39-1.19,1.18-2.37,1.57-3.55.4-.78.4-1.18.79-2a14,14,0,0,0,.79-3.93c0-.79.39-1.18.39-2Z"/><path class="cls-6" d="M101.11,216.74H81.42a2.56,2.56,0,0,1-2.37-2.37V212a2.55,2.55,0,0,1,2.37-2.36h19.69a2.54,2.54,0,0,1,2.36,2.36v2.36A2.55,2.55,0,0,1,101.11,216.74Z"/><path class="cls-4" d="M236.57,216.74H120.4a2.55,2.55,0,0,1-2.36-2.37V212a2.54,2.54,0,0,1,2.36-2.36H236.57a2.55,2.55,0,0,1,2.37,2.36v2.36A2.56,2.56,0,0,1,236.57,216.74Z"/><path class="cls-6" d="M101.11,240H81.42a2.55,2.55,0,0,1-2.37-2.36v-2.36a2.55,2.55,0,0,1,2.37-2.36h19.69a2.54,2.54,0,0,1,2.36,2.36v2.36A2.54,2.54,0,0,1,101.11,240Z"/><path class="cls-4" d="M236.57,240H120.4a2.54,2.54,0,0,1-2.36-2.36v-2.36a2.54,2.54,0,0,1,2.36-2.36H236.57a2.55,2.55,0,0,1,2.37,2.36v2.36A2.55,2.55,0,0,1,236.57,240Z"/><path class="cls-5" d="M121.59,382.8h-13.4v35h13.4Z"/><path class="cls-5" d="M146,376.51H132.61v41.71H146Z"/><path class="cls-5" d="M170.81,388.31H157.42v29.91h13.39Z"/><path class="cls-5" d="M195.22,398.15H181.83v20.07h13.39Z"/><path class="cls-3" d="M516.17,358.41H344.08a7.06,7.06,0,0,1-7.09-7.09V101.43a7.06,7.06,0,0,1,7.09-7.09h171.7a7.06,7.06,0,0,1,7.08,7.09V351.72A6.9,6.9,0,0,1,516.17,358.41Z"/><path class="cls-7" d="M510.66,230.9H372.43V247H510.66Z"/><path class="cls-6" d="M452.77,236.41H415v4.72h37.81Z"/><path class="cls-5" d="M500.81,236.41H487.42v4.72h13.39Z"/><path class="cls-7" d="M510.66,265.14H372.43v16.13H510.66Z"/><path class="cls-6" d="M441.35,271H415v4.72h26.39Z"/><path class="cls-2" d="M500.81,271H477.58v4.72h23.23Z"/><path class="cls-7" d="M510.66,299.77H372.43v16.14H510.66Z"/><path class="cls-6" d="M458.68,305.28H415V310h43.72Z"/><path class="cls-5" d="M500.81,305.28h-7.48V310h7.48Z"/><path class="cls-4" d="M500.81,115.2H370.86a8.41,8.41,0,0,0-8.27,8.66V199a8.66,8.66,0,0,0,8.27,8.65h130a8.4,8.4,0,0,0,8.27-8.65V123.86A8.67,8.67,0,0,0,500.81,115.2Zm-85.45,66.51V164.79h39.77v16.92Zm39.77,5.11v15.35H415.36V186.82Zm0-43.68v16.93H415.36V143.14Zm-39.77-5.51V120.71h39.77V138H415.36Zm88.6,22H460.25V142.75H504Zm-94.12,0H367.31V142.75h42.53Zm-42.53,5.12h42.53v16.92H367.31Zm92.94,0H504v16.92H460.25ZM504,123.86v13.77H460.25V120.71h40.56A3.1,3.1,0,0,1,504,123.86Zm-133.1-3.15h39.38V138H367.31V124.26A3.31,3.31,0,0,1,370.86,120.71ZM367.31,199V186.82h42.53v15.35H370.46C368.89,202.57,367.31,201,367.31,199Zm133.5,3.54H460.25V187.22H504v12.2A3.39,3.39,0,0,1,500.81,202.57Z"/><path class="cls-3" d="M389.37,383.2H217.28a7.06,7.06,0,0,1-7.09-7.08V125.83a7.06,7.06,0,0,1,7.09-7.09H389a7.06,7.06,0,0,1,7.09,7.09V376.12A7,7,0,0,1,389.37,383.2Z"/><path class="cls-4" d="M374.8,308H237.36a2.54,2.54,0,0,1-2.36-2.36v-.78a2.53,2.53,0,0,1,2.36-2.36H374.8a2.53,2.53,0,0,1,2.36,2.36v.78A2.27,2.27,0,0,1,374.8,308Z"/><path class="cls-4" d="M374.8,325H237.36a2.53,2.53,0,0,1-2.36-2.36v-.78a2.54,2.54,0,0,1,2.36-2.36H374.8a2.54,2.54,0,0,1,2.36,2.36v.78A2.26,2.26,0,0,1,374.8,325Z"/><path class="cls-4" d="M273.19,341.49H237.75a2.76,2.76,0,0,1,0-5.52h35.44a2.76,2.76,0,1,1,0,5.52Z"/><path class="cls-6" d="M273.19,289.14H237.75a2.76,2.76,0,0,1,0-5.51h35.44a2.76,2.76,0,1,1,0,5.51Z"/><path class="cls-2" d="M366.92,159.28a8.21,8.21,0,0,0-6.3,3.15l-18.51-4.73a2.6,2.6,0,0,0-2.75.79l-30.72,30.7a8.35,8.35,0,0,0-7.09,0l-23.63-23.62a5.85,5.85,0,0,0,.39-2.75,7.47,7.47,0,0,0-7.48-7.48,7.74,7.74,0,0,0-7.48,7.48,6.71,6.71,0,0,0,.39,2.75l-19.29,19.29a6.78,6.78,0,0,0-2.76-.39,7.47,7.47,0,0,0-7.48,7.47,7.49,7.49,0,0,0,15,0,9.36,9.36,0,0,0-.79-3.15l19.29-19.28a9.36,9.36,0,0,0,3.15.79,7.49,7.49,0,0,0,3.15-.79l23.63,23.61a5,5,0,0,0-.39,2.36,7.48,7.48,0,0,0,15,0,5,5,0,0,0-.39-2.36l29.93-29.91,16.93,4.33a7.63,7.63,0,0,0,7.48,6.69,7.48,7.48,0,0,0,7.49-7.47C374.4,162.43,370.86,159.28,366.92,159.28Zm-124.83,36.6a3.55,3.55,0,1,1,3.54-3.54A3.8,3.8,0,0,1,242.09,195.88Zm29.14-29.52a3.54,3.54,0,1,1,3.54-3.54A3.3,3.3,0,0,1,271.23,166.36Zm34.26,33.06a3.54,3.54,0,1,1,3.54-3.54C309.43,197.84,307.85,199.42,305.49,199.42Zm61.43-29.12a3.55,3.55,0,1,1,3.54-3.54A3.54,3.54,0,0,1,366.92,170.3Z"/><path class="cls-5" d="M246,261.2h-7.87a1.69,1.69,0,0,1-1.58-1.57V221.06a1.7,1.7,0,0,1,1.58-1.57H246a1.7,1.7,0,0,1,1.58,1.57v38.57A1.69,1.69,0,0,1,246,261.2Z"/><path class="cls-2" d="M250.75,261.2h-9.06a1,1,0,0,1-1.18-1.18V242.31a1,1,0,0,1,1.18-1.18h9.06a1,1,0,0,1,1.18,1.18V260A1.25,1.25,0,0,1,250.75,261.2Z"/><path class="cls-5" d="M266.5,261.2h-7.87a1.69,1.69,0,0,1-1.58-1.57V232.87a1.69,1.69,0,0,1,1.58-1.57h7.87a1.69,1.69,0,0,1,1.58,1.57v26.76A1.69,1.69,0,0,1,266.5,261.2Z"/><path class="cls-5" d="M287,261.2H279.1a1.68,1.68,0,0,1-1.57-1.57V242.71a1.69,1.69,0,0,1,1.57-1.58H287a1.7,1.7,0,0,1,1.58,1.58v16.92A1.69,1.69,0,0,1,287,261.2Z"/><path class="cls-5" d="M307.46,261.2h-7.88a1.68,1.68,0,0,1-1.57-1.57V227.75a1.69,1.69,0,0,1,1.57-1.57h7.88a1.7,1.7,0,0,1,1.57,1.57v31.88A1.43,1.43,0,0,1,307.46,261.2Z"/><path class="cls-5" d="M328.33,261.2h-7.88a1.69,1.69,0,0,1-1.58-1.57V240.35a1.7,1.7,0,0,1,1.58-1.58h7.88a1.69,1.69,0,0,1,1.57,1.58v19.28A1.68,1.68,0,0,1,328.33,261.2Z"/><path class="cls-5" d="M348.81,261.2h-7.88a1.68,1.68,0,0,1-1.57-1.57V232.87a1.68,1.68,0,0,1,1.57-1.57h7.88a1.69,1.69,0,0,1,1.57,1.57v26.76A1.69,1.69,0,0,1,348.81,261.2Z"/><path class="cls-5" d="M369.28,261.2h-7.87a1.69,1.69,0,0,1-1.58-1.57V242.71a1.7,1.7,0,0,1,1.58-1.58h7.87a1.7,1.7,0,0,1,1.58,1.58v16.92A1.69,1.69,0,0,1,369.28,261.2Z"/><path class="cls-2" d="M271.23,261.2h-9.45a.84.84,0,0,1-.79-.78V249.79a.84.84,0,0,1,.79-.78h9.45a.84.84,0,0,1,.78.78v10.63A.84.84,0,0,1,271.23,261.2Z"/><path class="cls-2" d="M292.1,261.2h-9.85a.84.84,0,0,1-.78-.78V255.3a.85.85,0,0,1,.78-.79h9.85a.86.86,0,0,1,.79.79v5.12C292.49,260.81,292.49,261.2,292.1,261.2Z"/><path class="cls-2" d="M312.57,261.2h-9.44a.84.84,0,0,1-.79-.78v-7.48a.85.85,0,0,1,.79-.79h9.44a.85.85,0,0,1,.79.79v7.48C313.36,260.81,313.36,261.2,312.57,261.2Z"/><path class="cls-2" d="M333.05,261.2H324a.84.84,0,0,1-.79-.78V246.64a.84.84,0,0,1,.79-.78h9.05a.84.84,0,0,1,.79.78v13.78C334.24,260.81,333.84,261.2,333.05,261.2Z"/><path class="cls-2" d="M354.71,261.2H344.47c-.39,0-.39,0-.39-.39v-2.36c0-.4,0-.4.39-.4h10.24c.4,0,.4,0,.4.4v2C355.11,260.81,355.11,261.2,354.71,261.2Z"/><path class="cls-2" d="M375.19,261.21H365a.39.39,0,0,1-.39-.4v-1.18a.38.38,0,0,1,.39-.39h10.24a.38.38,0,0,1,.39.39l-.39,1.58Z"/><path class="cls-3" d="M318.53,403.66a55.88,55.88,0,1,0-55.92-55.88A55.9,55.9,0,0,0,318.53,403.66Z"/><path class="cls-7" d="M370.91,338.73H267.34v15.35H370.91Z"/><path class="cls-7" d="M370.91,308.43H267.34v15.35H370.91Z"/><path class="cls-8" d="M402.41,415.86,390.6,427.67l-34.26-33.85L368.15,382Z"/><path class="cls-5" d="M272.85,298.59a65.41,65.41,0,1,0,92.54,0A65.3,65.3,0,0,0,272.85,298.59Zm81.91,81.86a50.66,50.66,0,1,1,0-71.63A50.9,50.9,0,0,1,354.76,380.45Z"/><path class="cls-5" d="M420.92,446.16c-5.12,5.12-13.78,5.12-19.3,0L367,411.93a6,6,0,0,1,0-7.87l11.42-11.42a5.49,5.49,0,0,1,7.48,0l35.05,34.24A13.31,13.31,0,0,1,420.92,446.16Z"/><path class="cls-2" d="M279.62,44.24a48.59,48.59,0,0,1-1,9.87v.68A45,45,0,0,1,251.45,86.1c-.68.34-1,.34-1.68.68a39.27,39.27,0,0,1-14.24,2.38,44.58,44.58,0,0,1,0-89.16A44.08,44.08,0,0,1,279.62,44.24Z"/><path class="cls-9" d="M278.59,54.11v.68A45,45,0,0,1,251.45,86.1c-.68.34-1,.34-1.68.68L221.6,58.53l4.07-14.29-.32-5.44,7.46-11.91,7.11-3.41,14.6,6.13Z"/><path class="cls-3" d="M252.31,45.78h-15.6a1.46,1.46,0,0,1-1.36-1.36V28.77a2.53,2.53,0,0,0-2-2.39H233c-10.53,1.36-17.64,11.23-16.28,21.78A19.19,19.19,0,0,0,238.42,64.5,18.79,18.79,0,0,0,254.7,48.16a2.56,2.56,0,0,0-2.39-2.38Z"/><path class="cls-3" d="M239.42,24.68V40a1.61,1.61,0,0,0,1.71,1.7h15.25a1.6,1.6,0,0,0,1.71-1.7c-.67-8.51-8.14-16.68-17-17-1-.34-1.71.34-1.71,1.7Z"/><path class="cls-5" d="M580.14,267.28c-.21.65-.21,1.29-.42,2.15a39.25,39.25,0,1,1-30-48.63,39.26,39.26,0,0,1,30.42,46.48Z"/><path class="cls-10" d="M579.69,269.19a39.42,39.42,0,0,1-28.51,28.28L528.84,275l4.26-4.07,14.25-1.5,7-18.43-4.89-4.28L558.2,248Z"/><path class="cls-3" d="M538.9,275.54l-.65-.14-.51-.14c-.25-.06-.48-.14-.72-.22a7.47,7.47,0,0,0,.87.3,7.68,7.68,0,0,0,1.16.23ZM531.84,250c.34-.31.7-.61,1.08-.91A13.33,13.33,0,0,0,531.84,250ZM530,252.11a14.37,14.37,0,0,1,1.38-1.62A11.82,11.82,0,0,0,530,252.11Z"/><path class="cls-3" d="M535.71,247.45a14.63,14.63,0,0,1,2.39-.82,14,14,0,0,1,1.8-.36A13.54,13.54,0,0,0,535.71,247.45Z"/><path class="cls-3" d="M563.06,256.09c-.09-.56-.2-1.12-.32-1.68l0,0a21.4,21.4,0,0,0-6.23-10.71,23.36,23.36,0,0,0-9.38-5.36c-.43-.12-.86-.22-1.3-.31s-.79-.15-1.18-.19a7.34,7.34,0,0,0-1-.12,4,4,0,0,0-.61-.05c-.4,0-.81,0-1.22,0s-.86,0-1.29,0h-.06c-.44,0-.87.08-1.29.14a18,18,0,0,0-2.65.53,21.75,21.75,0,0,0-3.52,1.19,19.87,19.87,0,0,0-1.78.91c-.22.11-.42.23-.63.36l-.3.2c-.17.1-.37.23-.54.35s-.58.4-.86.61c-.56.43-1.08.87-1.58,1.33q-.39.35-.75.72a23.25,23.25,0,0,0-2,2.38c-.2.28-.4.56-.59.86a22.84,22.84,0,0,0-1.47,2.55c-.15.3-.28.59-.42.9l-.1.25c-.13.33-.27.65-.38,1s-.24.68-.34,1-.21.68-.3,1a.06.06,0,0,1,0,0c-.17.68-.31,1.37-.42,2.08a18.17,18.17,0,0,0-.22,2.21c0,.33,0,.67,0,1v.11c0,.43,0,.84.05,1.25a21.91,21.91,0,0,0,5.8,13.68,21.53,21.53,0,0,0,8.84,5.75,9.28,9.28,0,0,0,1.06.32l.75.21c.31.07.62.15,1,.21l.22,0a12.73,12.73,0,0,0,1.26.19.86.86,0,0,0,.17,0c.5,0,1,.09,1.54.12.31,0,.62,0,.93,0s.74,0,1.1,0,.7,0,1-.09a14.08,14.08,0,0,0,1.47-.24,20.74,20.74,0,0,0,8.26-3.25,21,21,0,0,0,3.89-3.32,21.91,21.91,0,0,0,4.64-7.83c.15-.4.26-.81.38-1.23.06-.23.12-.48.18-.72a17.52,17.52,0,0,0,.37-1.89c0-.33.09-.65.12-1s0-.56.07-.86c0-.46,0-.91,0-1.37A22.69,22.69,0,0,0,563.06,256.09ZM549,264.14a2.61,2.61,0,0,1-2.18,1.28,1.83,1.83,0,0,1-1.26-.33l-5.64-3.46a2.63,2.63,0,0,1-1.25-1.89V248.07a2.09,2.09,0,0,1,2.51-2.2,2.16,2.16,0,0,1,2.2,2.2v10.4l4.69,2.53A2.18,2.18,0,0,1,549,264.14Z"/></g></g></svg>