<svg xmlns="http://www.w3.org/2000/svg" xmlns:xlink="http://www.w3.org/1999/xlink" viewBox="0 0 581 450"><defs><style>.cls-1{fill:#e9f0f8;}.cls-2{fill:#eaeef9;}.cls-3{fill:#06afea;}.cls-4{fill:none;}.cls-5{fill:#fff;}.cls-6{fill:#dae1ed;}.cls-7{clip-path:url(#clip-path);}.cls-8{fill:#1c3754;}.cls-9{fill:url(#linear-gradient);}.cls-10{fill:#e3eaf2;}.cls-11{fill:url(#linear-gradient-2);}.cls-12{clip-path:url(#clip-path-2);}.cls-13{fill:url(#linear-gradient-3);}.cls-14{fill:url(#linear-gradient-4);}.cls-15{fill:url(#linear-gradient-5);}.cls-16{clip-path:url(#clip-path-3);}.cls-17{fill:#fc0;}.cls-18{fill:url(#linear-gradient-6);}.cls-19{fill:#252e48;}.cls-20{opacity:0.67;isolation:isolate;fill:url(#linear-gradient-7);}.cls-21{fill:url(#linear-gradient-8);}</style><clipPath id="clip-path"><ellipse class="cls-1" cx="120.72" cy="356.54" rx="25.52" ry="25.61"/></clipPath><linearGradient id="linear-gradient" x1="121.04" y1="370.6" x2="120.96" y2="351.08" gradientUnits="userSpaceOnUse"><stop offset="0" stop-color="#fff"/><stop offset="0.99" stop-color="#ced5e6"/></linearGradient><linearGradient id="linear-gradient-2" x1="162.11" y1="341.06" x2="209.33" y2="341.06" gradientUnits="userSpaceOnUse"><stop offset="0" stop-color="#ffd9b5"/><stop offset="1" stop-color="#ffd900"/></linearGradient><clipPath id="clip-path-2"><ellipse class="cls-1" cx="120.72" cy="102.69" rx="25.52" ry="25.61"/></clipPath><linearGradient id="linear-gradient-3" x1="121.04" y1="116.75" x2="120.96" y2="97.23" xlink:href="#linear-gradient"/><linearGradient id="linear-gradient-4" x1="162.11" y1="87.2" x2="209.33" y2="87.2" xlink:href="#linear-gradient-2"/><linearGradient id="linear-gradient-5" x1="162.11" y1="214.13" x2="209.33" y2="214.13" xlink:href="#linear-gradient-2"/><clipPath id="clip-path-3"><path class="cls-1" d="M145.73,229.7a25.38,25.38,0,0,1-8.32,19,27.4,27.4,0,0,1-4.5,3.31,25,25,0,0,1-13,3.48,25.48,25.48,0,0,1-13-3.48c-.52-.34-1.22-.7-1.74-1.05A25.6,25.6,0,0,1,94.11,229.7a25.81,25.81,0,1,1,51.62,0Z"/></clipPath><linearGradient id="linear-gradient-6" x1="120.62" y1="676.4" x2="120.62" y2="678.34" gradientTransform="matrix(1, 0, 0, -1, 0, 915.92)" gradientUnits="userSpaceOnUse"><stop offset="0" stop-color="#fff"/><stop offset="0.99" stop-color="#e6edf7"/></linearGradient><linearGradient id="linear-gradient-7" x1="68.04" y1="748.35" x2="103.08" y2="713.43" gradientTransform="matrix(1, 0, 0, -1, 0, 915.92)" gradientUnits="userSpaceOnUse"><stop offset="0" stop-color="#038fdb"/><stop offset="1" stop-color="#06afea" stop-opacity="0"/></linearGradient><linearGradient id="linear-gradient-8" x1="460.39" y1="375.3" x2="489.64" y2="413.56" gradientUnits="userSpaceOnUse"><stop offset="0" stop-color="#e2b700"/><stop offset="1" stop-color="#fc0"/></linearGradient></defs><g id="Layer_2" data-name="Layer 2"><g id="Layer_1-2" data-name="Layer 1"><path class="cls-2" d="M269.12,424.67c107.53,0,194.7-87.33,194.7-195S376.65,34.56,269.12,34.56,74.42,121.89,74.42,229.62,161.59,424.67,269.12,424.67Z"/><path class="cls-2" d="M488.51,26.47a3.94,3.94,0,0,1-2.82,1.17c-9.83,0-13.81-7.4-16.72-12.81C466.37,10,465.06,8,462.51,8a4,4,0,0,1,0-8c7.56,0,10.84,6.11,13.48,11,2.95,5.49,4.86,8.6,9.7,8.6a4,4,0,0,1,2.82,6.84Z"/><path class="cls-2" d="M442.15,26.47a3.93,3.93,0,0,1-2.82,1.17c-9.83,0-13.81-7.4-16.71-12.81C420,10,418.7,8,416.16,8a4,4,0,0,1,0-8c7.55,0,10.83,6.11,13.47,11,3,5.49,4.86,8.6,9.7,8.6a4,4,0,0,1,2.82,6.84Z"/><path class="cls-2" d="M450.48,23.08a15,15,0,0,1-11.15,4.56,4,4,0,0,1,0-8c4.84,0,6.84-3.27,9.71-8.61C451.68,6.11,455,0,462.51,0a4,4,0,0,1,0,8c-2.54,0-3.85,2-6.46,6.82A34.16,34.16,0,0,1,450.48,23.08Z"/><path class="cls-2" d="M404.12,23.08A15,15,0,0,1,393,27.64a4,4,0,0,1,0-8c4.83,0,6.84-3.27,9.71-8.61,2.64-4.91,5.92-11,13.47-11a4,4,0,0,1,0,8c-2.54,0-3.86,2-6.46,6.82A34.22,34.22,0,0,1,404.12,23.08Z"/><path class="cls-2" d="M579.83,26.47A3.94,3.94,0,0,1,577,27.64c-9.83,0-13.81-7.4-16.71-12.81C557.69,10,556.38,8,553.84,8a4,4,0,0,1,0-8c7.55,0,10.83,6.11,13.47,11,3,5.49,4.86,8.6,9.7,8.6a4,4,0,0,1,2.82,6.84Z"/><path class="cls-2" d="M533.48,26.47a3.94,3.94,0,0,1-2.82,1.17c-9.84,0-13.82-7.4-16.72-12.81C511.34,10,510,8,507.48,8a4,4,0,0,1,0-8C515,0,518.32,6.11,521,11c2.95,5.49,4.86,8.6,9.7,8.6a4,4,0,0,1,2.82,6.84Z"/><path class="cls-2" d="M541.8,23.08a15,15,0,0,1-11.14,4.56,4,4,0,0,1,0-8c4.83,0,6.83-3.27,9.7-8.61C543,6.11,546.29,0,553.84,0a4,4,0,0,1,0,8c-2.54,0-3.86,2-6.46,6.82A34.51,34.51,0,0,1,541.8,23.08Z"/><path class="cls-2" d="M495.45,23.08a15,15,0,0,1-11.15,4.56,4,4,0,0,1,0-8c4.83,0,6.83-3.27,9.7-8.61,2.64-4.91,5.92-11,13.47-11a4,4,0,0,1,0,8c-2.54,0-3.85,2-6.45,6.82A34.51,34.51,0,0,1,495.45,23.08Z"/><path class="cls-2" d="M39.23,405.16A2.14,2.14,0,0,1,39,406L22,436.84a2.11,2.11,0,0,1-1.79,1.09,2.08,2.08,0,0,1-1.83-1L9.35,421.82h0l-9-15.09a2.1,2.1,0,0,1,1.75-3.18l35.06-.67a2.1,2.1,0,0,1,2.12,2.28ZM20.12,431.63l13.45-24.48-27.82.53Z"/><path class="cls-2" d="M158,43.78a7.32,7.32,0,0,0,4.51-9.14A7,7,0,0,0,153.63,30a7.29,7.29,0,0,0-4.51,9.13A7,7,0,0,0,158,43.78Z"/><path class="cls-3" d="M158.42,450a7.27,7.27,0,1,0-7-7.27A7.13,7.13,0,0,0,158.42,450Z"/><path class="cls-2" d="M503,202.09a16.67,16.67,0,0,0,1-23,15.28,15.28,0,0,0-22.16-1,16.57,16.57,0,0,0-1,22.91A15.28,15.28,0,0,0,503,202.09Z"/><path class="cls-4" d="M82.36,320.72v71.64A15.63,15.63,0,0,0,87.09,404a15.21,15.21,0,0,0,10.28,4H429.22c.92,0,8.15-.29,12.55-6.34a15.68,15.68,0,0,0,2.92-9.25V320.72c0-1-.41-8.31-6.47-12.71a15.59,15.59,0,0,0-8.76-2.88H97.37a15.91,15.91,0,0,0-10.11,4.28A16.27,16.27,0,0,0,82.36,320.72Z"/><path class="cls-4" d="M82.36,66.87v71.64a15.64,15.64,0,0,0,4.73,11.6,15.13,15.13,0,0,0,10.28,4H429.22c.92,0,8.15-.29,12.55-6.33a15.72,15.72,0,0,0,2.92-9.25V66.87c0-1-.41-8.32-6.47-12.71a15.43,15.43,0,0,0-8.76-2.88H97.37a15.91,15.91,0,0,0-10.11,4.28A16.27,16.27,0,0,0,82.36,66.87Z"/><path class="cls-4" d="M82.36,194.21v71.64a15.64,15.64,0,0,0,4.73,11.6,15.13,15.13,0,0,0,10.28,4H429.22c.92,0,8.15-.29,12.55-6.33a15.72,15.72,0,0,0,2.92-9.25V194.21c0-1-.41-8.32-6.47-12.71a15.43,15.43,0,0,0-8.76-2.88H97.37a15.91,15.91,0,0,0-10.11,4.28A16.27,16.27,0,0,0,82.36,194.21Z"/><path class="cls-5" d="M82.36,320.72v71.64A15.63,15.63,0,0,0,87.09,404a15.21,15.21,0,0,0,10.28,4H429.22c.92,0,8.15-.29,12.55-6.34a15.68,15.68,0,0,0,2.92-9.25V320.72c0-1-.41-8.31-6.47-12.71a15.59,15.59,0,0,0-8.76-2.88H97.37a15.91,15.91,0,0,0-10.11,4.28A16.27,16.27,0,0,0,82.36,320.72Z"/><path class="cls-6" d="M438.22,308a15.59,15.59,0,0,0-8.76-2.88H376.75a15.59,15.59,0,0,1,8.76,2.88c6.07,4.4,6.44,11.73,6.47,12.71v71.64a15.74,15.74,0,0,1-2.91,9.25c-4.41,6.05-11.64,6.32-12.56,6.34h52.71c.92,0,8.15-.29,12.55-6.34a15.7,15.7,0,0,0,2.92-9.25V320.72C444.66,319.74,444.28,312.41,438.22,308Z"/><ellipse class="cls-1" cx="120.72" cy="356.54" rx="25.52" ry="25.61"/><g class="cls-7"><path class="cls-5" d="M139.56,375.15l-1,1a26.32,26.32,0,0,1-18.1,7,26.89,26.89,0,0,1-15.16-4.72,24.83,24.83,0,0,1-3.18-2.65c.21-.18.53-.45.94-.75a19.23,19.23,0,0,1,5.21-2.51c1-.36,2.59-1,4.73-1.79a3,3,0,0,0,.62-.52,3.92,3.92,0,0,0,.42-.59c.14-.25.24-.47.31-.63a2.1,2.1,0,0,0,.21-1.16v-5.35l-.21-.31a6,6,0,0,1-.83-2.5,1.28,1.28,0,0,1-.78-.09c-.58-.29-.46-.92-.88-3.85-.07-.54-.17-1.18.21-1.58a1.08,1.08,0,0,1,.56-.29l.16-.58a15.1,15.1,0,0,1-1.43-6.26,5.08,5.08,0,0,1,.36-1.94,5.26,5.26,0,0,1,2.35-2.49q-.37-1-.78-2l-.24-.57a20.21,20.21,0,0,0,6.88.62,10.09,10.09,0,0,1,2.93-.11,7.91,7.91,0,0,1,4.78,3.26,3.2,3.2,0,0,1,.57.24,4.09,4.09,0,0,1,.43.25,4.52,4.52,0,0,1,1.91,1.64,4.47,4.47,0,0,1,.61,1.62c.46,2.49-.88,5.82-1.11,6.39a.23.23,0,0,1,0,.07s0,0,0,0a.11.11,0,0,0,0,.08.12.12,0,0,0,.07,0c.42.21.53.53.32,1.57-.32,2.73-.22,4.31-1.58,4a9.05,9.05,0,0,1-1.11,2.26l-.26.37q0,3.09,0,6.19a2,2,0,0,0,.4.84l.31.31.32.28c.36.31.77.61.84.67a64.69,64.69,0,0,0,6.6,2.72A21.17,21.17,0,0,1,139.56,375.15Z"/><path class="cls-3" d="M142.25,382.85c-4.73,4.41-14.73.42-21.78.42-5.58,0-17.26,4.41-21.58,1.47-.84-.63.21-3.05.53-3.78a29.52,29.52,0,0,1,1.79-4.3c1.57-3.05,8.84-4.52,11.78-6.09h.11a10.12,10.12,0,0,0,16.31.11h.11c9.79,4,10.42,3.46,11.68,7.13C141.41,378.44,142.67,382.43,142.25,382.85Z"/><path class="cls-8" d="M130,354.1a9.41,9.41,0,0,0-.42-2.1c0-.11-.07-.22-.1-.32-1.05-2.1-3.48-3-5.69-3.15-5.78-.31-6.31.84-8.2-.84a4,4,0,0,1-.22,3.89,4.46,4.46,0,0,1-2.84,2c-2.63-6-1.37-9.76,1.27-11.12a10.34,10.34,0,0,1-1-2.52s5.58.94,7.47.52c2.42-.52,6.21.11,7.58,3.36,2.31.95,3.26,2.42,3.47,4C131.83,350.32,130.36,353.05,130,354.1Z"/><path class="cls-9" d="M114.57,368.05v-5.56a4.77,4.77,0,0,0,.4.35,6.59,6.59,0,0,0,.66.49l4.2,2.94a2.57,2.57,0,0,0,3.37,0l3-2.65,1.3-1.23s0,3.92,0,4v2.23l-13,0a1.43,1.43,0,0,0,0-.22C114.57,368.26,114.57,368.15,114.57,368.05Z"/></g><path class="cls-10" d="M374.52,343.68H226.76a2.79,2.79,0,0,1-2.6-2.62,2.82,2.82,0,0,1,2.6-2.62H374.52a2.82,2.82,0,0,1,2.6,2.62A2.79,2.79,0,0,1,374.52,343.68Z"/><path class="cls-11" d="M206.73,343.68h-42a2.79,2.79,0,0,1-2.6-2.62,2.82,2.82,0,0,1,2.6-2.62h42a2.82,2.82,0,0,1,2.6,2.62A2.5,2.5,0,0,1,206.73,343.68Z"/><path class="cls-10" d="M374.52,354.16H164.71a2.79,2.79,0,0,0-2.6,2.62,2.83,2.83,0,0,0,2.6,2.63H374.52c2.08,0,2.6-1.51,2.6-2.8A2.47,2.47,0,0,0,374.52,354.16Z"/><path class="cls-10" d="M259.73,374.65h-95a2.6,2.6,0,1,1,0-5.2h95a2.6,2.6,0,1,1,0,5.2Z"/><path class="cls-5" d="M82.36,66.87v71.64a15.64,15.64,0,0,0,4.73,11.6,15.13,15.13,0,0,0,10.28,4H429.22c.92,0,8.15-.29,12.55-6.33a15.72,15.72,0,0,0,2.92-9.25V66.87c0-1-.41-8.32-6.47-12.71a15.43,15.43,0,0,0-8.76-2.88H97.37a15.91,15.91,0,0,0-10.11,4.28A16.27,16.27,0,0,0,82.36,66.87Z"/><path class="cls-6" d="M438.22,54.16a15.43,15.43,0,0,0-8.76-2.88H376.75a15.43,15.43,0,0,1,8.76,2.88c6.07,4.39,6.44,11.73,6.47,12.71v71.64a15.76,15.76,0,0,1-2.91,9.25c-4.41,6-11.64,6.31-12.56,6.33h52.71c.92,0,8.15-.29,12.55-6.33a15.72,15.72,0,0,0,2.92-9.25V66.87C444.66,65.89,444.28,58.55,438.22,54.16Z"/><ellipse class="cls-1" cx="120.72" cy="102.69" rx="25.52" ry="25.61"/><g class="cls-12"><path class="cls-5" d="M139.56,121.29l-1,1a26.32,26.32,0,0,1-18.1,7,26.89,26.89,0,0,1-15.16-4.72,25.69,25.69,0,0,1-3.18-2.65c.21-.19.53-.45.94-.75a18.94,18.94,0,0,1,5.21-2.51c1-.36,2.59-1,4.73-1.79a3,3,0,0,0,.62-.53,3.47,3.47,0,0,0,.42-.59,5.11,5.11,0,0,0,.31-.63,2.05,2.05,0,0,0,.21-1.15v-5.35l-.21-.32a5.94,5.94,0,0,1-.83-2.5,1.15,1.15,0,0,1-.78-.09c-.58-.28-.46-.92-.88-3.85-.07-.53-.17-1.18.21-1.57a1,1,0,0,1,.56-.29l.16-.58a15.15,15.15,0,0,1-1.43-6.27,5,5,0,0,1,.36-1.93,5.21,5.21,0,0,1,2.35-2.49q-.37-1-.78-2l-.24-.58a19.71,19.71,0,0,0,6.88.62,10.45,10.45,0,0,1,2.93-.11A8,8,0,0,1,127.65,90a6,6,0,0,1,.57.24,4.06,4.06,0,0,1,.43.26,4.29,4.29,0,0,1,2.52,3.26c.46,2.49-.88,5.81-1.11,6.38a.25.25,0,0,1,0,.08s0,0,0,0a.11.11,0,0,0,0,.09.12.12,0,0,0,.07,0c.42.21.53.52.32,1.57-.32,2.73-.22,4.3-1.58,4a9.22,9.22,0,0,1-1.11,2.26l-.26.36c0,2.06,0,4.13,0,6.19a1.83,1.83,0,0,0,.4.84c.07.09.22.23.31.32l.32.28c.36.3.77.61.84.66a62.5,62.5,0,0,0,6.6,2.72A22.87,22.87,0,0,1,139.56,121.29Z"/><path class="cls-3" d="M142.25,129c-4.73,4.41-14.73.42-21.78.42-5.58,0-17.26,4.41-21.58,1.47-.84-.63.21-3,.53-3.77a30.1,30.1,0,0,1,1.79-4.31c1.57-3,8.84-4.51,11.78-6.08h.11a10.11,10.11,0,0,0,16.31.1h.11c9.79,4,10.42,3.46,11.68,7.14C141.41,124.59,142.67,128.57,142.25,129Z"/><path class="cls-8" d="M130,100.24a9.64,9.64,0,0,0-.42-2.1l-.1-.31c-1.05-2.1-3.48-3-5.69-3.15-5.78-.32-6.31.84-8.2-.84a4,4,0,0,1-.22,3.88,4.48,4.48,0,0,1-2.84,2c-2.63-6-1.37-9.76,1.27-11.13a10.17,10.17,0,0,1-1-2.52s5.58,1,7.47.53c2.42-.53,6.21.1,7.58,3.36,2.31.94,3.26,2.41,3.47,4C131.83,96.46,130.36,99.19,130,100.24Z"/><path class="cls-13" d="M114.57,114.2v-5.56c.12.11.25.23.4.35a6.59,6.59,0,0,0,.66.49l4.2,2.93a2.57,2.57,0,0,0,3.37,0l3-2.64,1.3-1.24s0,3.93,0,4,0,2.22,0,2.23l-13,0a1.24,1.24,0,0,0,0-.22C114.57,114.41,114.57,114.3,114.57,114.2Z"/></g><path class="cls-10" d="M374.52,89.82H226.76a2.78,2.78,0,0,1-2.6-2.62,2.82,2.82,0,0,1,2.6-2.62H374.52a2.82,2.82,0,0,1,2.6,2.62A2.78,2.78,0,0,1,374.52,89.82Z"/><path class="cls-14" d="M206.73,89.82h-42a2.78,2.78,0,0,1-2.6-2.62,2.82,2.82,0,0,1,2.6-2.62h42a2.82,2.82,0,0,1,2.6,2.62A2.49,2.49,0,0,1,206.73,89.82Z"/><path class="cls-10" d="M374.52,100.31H164.71a2.79,2.79,0,0,0-2.6,2.62,2.82,2.82,0,0,0,2.6,2.62H374.52c2.08,0,2.6-1.51,2.6-2.79A2.46,2.46,0,0,0,374.52,100.31Z"/><path class="cls-10" d="M259.73,120.79h-95a2.6,2.6,0,1,1,0-5.2h95a2.6,2.6,0,1,1,0,5.2Z"/><path class="cls-5" d="M82.36,193.79v71.64A15.62,15.62,0,0,0,87.09,277a15.1,15.1,0,0,0,10.28,4H429.22c.92,0,8.15-.29,12.55-6.34a15.68,15.68,0,0,0,2.92-9.25V193.79c0-1-.41-8.31-6.47-12.71a15.48,15.48,0,0,0-8.76-2.87H97.37a15.82,15.82,0,0,0-10.11,4.27A16.3,16.3,0,0,0,82.36,193.79Z"/><path class="cls-6" d="M438.22,181.08a15.48,15.48,0,0,0-8.76-2.87H376.75a15.48,15.48,0,0,1,8.76,2.87c6.07,4.4,6.44,11.74,6.47,12.71v71.64a15.72,15.72,0,0,1-2.91,9.25c-4.41,6.05-11.64,6.32-12.56,6.34h52.71c.92,0,8.15-.29,12.55-6.34a15.68,15.68,0,0,0,2.92-9.25V193.79C444.66,192.82,444.28,185.48,438.22,181.08Z"/><path class="cls-10" d="M374.52,216.75H226.76a2.79,2.79,0,0,1-2.6-2.62,2.82,2.82,0,0,1,2.6-2.62H374.52a2.82,2.82,0,0,1,2.6,2.62A2.79,2.79,0,0,1,374.52,216.75Z"/><path class="cls-15" d="M206.73,216.75h-42a2.79,2.79,0,0,1-2.6-2.62,2.82,2.82,0,0,1,2.6-2.62h42a2.82,2.82,0,0,1,2.6,2.62A2.5,2.5,0,0,1,206.73,216.75Z"/><path class="cls-10" d="M374.52,227.24H164.71a2.79,2.79,0,0,0-2.6,2.62,2.82,2.82,0,0,0,2.6,2.62H374.52c2.08,0,2.6-1.51,2.6-2.8A2.46,2.46,0,0,0,374.52,227.24Z"/><path class="cls-10" d="M259.73,247.72h-95a2.6,2.6,0,1,1,0-5.2h95a2.6,2.6,0,1,1,0,5.2Z"/><path class="cls-1" d="M145.73,229.7a25.38,25.38,0,0,1-8.32,19,27.4,27.4,0,0,1-4.5,3.31,25,25,0,0,1-13,3.48,25.48,25.48,0,0,1-13-3.48c-.52-.34-1.22-.7-1.74-1.05A25.6,25.6,0,0,1,94.11,229.7a25.81,25.81,0,1,1,51.62,0Z"/><g class="cls-16"><path class="cls-5" d="M105.37,250.91v-.34a12.16,12.16,0,0,1,1.28-3.82,8.65,8.65,0,0,1,2.53-3.19,7.27,7.27,0,0,1,1.57-.9c-2.78-1-4.7-3-4.73-5a4.38,4.38,0,0,1,.56-2.07c1-2,3.25-2.92,4.36-3.37.37-.15.69-.25.88-.31l.48-.24c-.07-.3-.13-.59-.2-.89a2.79,2.79,0,0,1-1.17-.76,4.51,4.51,0,0,1-.54-1,2.73,2.73,0,0,1,.17-2.08,1,1,0,0,0,.2-.61,1,1,0,0,0,0-.26v-3a9.45,9.45,0,0,1,.52-2.61,11.6,11.6,0,0,1,3.25-4.37,10.85,10.85,0,0,1,8.43-2.24A8.86,8.86,0,0,1,126,215a9.17,9.17,0,0,1,.83.54l1.84,1.69a8.17,8.17,0,0,1,1.67,2.22,7.08,7.08,0,0,1,.36.82,15,15,0,0,1,1,3.39v0c0,.28,0,.49,0,.56a11.16,11.16,0,0,0,.27,2c.13.46.16.36.21.63a3,3,0,0,1-.55,2.17,3.31,3.31,0,0,1-1.53,1.2,11.85,11.85,0,0,1-1.73,4,17.6,17.6,0,0,1-3,3.12V241s.18.34,1.91.34h.52l1.08,0a9.41,9.41,0,0,1,3.6.94,10.53,10.53,0,0,1,5.07,5.87,23,23,0,0,1-2.07,1.73,24.29,24.29,0,0,1-2.31,1.51Z"/><path class="cls-17" d="M137.81,248.28a27.27,27.27,0,0,1-4.9,3.68,26.66,26.66,0,0,1-3.8,1.84,25.52,25.52,0,0,1-9.19,1.64,27.79,27.79,0,0,1-13-3.48c-.76-.42-1.37-.81-1.78-1.07l0-.32a12.53,12.53,0,0,1,1.28-3.82,8.43,8.43,0,0,1,2.71-3.31,6.66,6.66,0,0,1,1.32-.72c.77-.69,1.54-1.38,2.32-2.06a9.13,9.13,0,0,0,7.1,3.82h.52a8.8,8.8,0,0,0,5-1.48,7.7,7.7,0,0,0,1.73-1.66h1.59a9.39,9.39,0,0,1,3.79.88,10,10,0,0,1,4.84,5.28c.08.14.16.28.23.43Z"/><path class="cls-18" d="M125.29,237.52l.17-.17V241l-9.68.19c0-1.43,0-2.85.07-4.27a6,6,0,0,0,1.19.91,7.83,7.83,0,0,0,.9.44,7.69,7.69,0,0,0,7.35-.75Z"/><path class="cls-8" d="M131.7,223.61a15.12,15.12,0,0,1-6.24.88,14.67,14.67,0,0,1-9-3.83,9.51,9.51,0,0,1-5.19,5.21,2.85,2.85,0,0,1-.87.35v-.17a24.27,24.27,0,0,1,.52-5.22c1-3.9,5.32-6.08,5.57-6.2a10.25,10.25,0,0,1,8.78-.22,11,11,0,0,1,5.23,4.86,11.34,11.34,0,0,1,1.21,3.64Z"/><path class="cls-19" d="M119.05,247.26a3.57,3.57,0,0,1-1.73,1,7.3,7.3,0,0,1-2.25.07c1.38-1.39.69-6.09-4.51-5.58-7.1-1.39-6.23-8.69.52-10.77l1.22-.34.09.23a17.59,17.59,0,0,0,1,1.9,17,17,0,0,0,1.17,1.69,2.17,2.17,0,0,0-1,1.6c0,1.35,2.29,1.57,4.09,3.66S120.21,245.88,119.05,247.26Z"/><path class="cls-1" d="M114.55,235.44a8.81,8.81,0,0,0,1.3,1.48c0,.73,0,1.47,0,2.2l-.41-.25-.4-.25a4.1,4.1,0,0,1-1.26-1,1.36,1.36,0,0,1-.17-.58,1.25,1.25,0,0,1,.14-.65,2.75,2.75,0,0,1,.4-.54A4,4,0,0,1,114.55,235.44Z"/></g><path class="cls-3" d="M117,177.42a37.75,37.75,0,0,1-2.12,7.33A43,43,0,0,1,82,211.29,43.69,43.69,0,0,1,66.21,211,43,43,0,0,1,33.1,160.12c4.93-23.2,27.48-38.36,50.49-33.41a40.93,40.93,0,0,1,21.61,11.86A41.52,41.52,0,0,1,117,177.42Z"/><path class="cls-20" d="M114.8,184.73a42.93,42.93,0,0,1-32.88,26.53l-3.76-3.8-20.9-22.25,1.17-1.67,23,.48L66.18,164.11,79.1,158.2l-8-7.11,8.46-1.88Z"/><path class="cls-5" d="M73.59,175.42a2.24,2.24,0,0,0,3,.48c.24,0,.24-.25.47-.48l8.46-10.66a2.26,2.26,0,0,0-.47-3.08,3.16,3.16,0,0,0-1.41-.48h-4v-6.4a.63.63,0,0,0-.7-.71H71.71a.64.64,0,0,0-.71.71v6.4H67a2.11,2.11,0,0,0-2.11,2.13,3.35,3.35,0,0,0,.47,1.43Z"/><path class="cls-5" d="M79.22,151.25H71.71a.75.75,0,0,1-.71-.71v-.94a.76.76,0,0,1,.71-.71h7.51a.75.75,0,0,1,.71.71v.94A.75.75,0,0,1,79.22,151.25Z"/><path class="cls-5" d="M61.14,186.79a5.3,5.3,0,0,1-5.4-5.22v-8.51a2.63,2.63,0,0,1,2.58-2.62,2.44,2.44,0,0,1,2.35,2.62v8.76H90.26v-8.76a2.39,2.39,0,0,1,2.35-2.39,2.59,2.59,0,0,1,2.58,2.39v8.51a5.29,5.29,0,0,1-5.4,5.22Z"/><path class="cls-17" d="M507.25,390.72a44.32,44.32,0,1,1-86.77-18.09c5.11-23.94,28.51-39.57,52.4-34.45a42.46,42.46,0,0,1,22.42,12.23A44.61,44.61,0,0,1,507.25,390.72Z"/><path class="cls-21" d="M506.18,395.37a44.46,44.46,0,0,1-37,30.93l-29.23-37.95,14.69-18.11,11.56-3.09Z"/><path class="cls-5" d="M475.38,374.88c0-8-8.41-14.47-18.79-14.47s-18.78,6.48-18.78,14.47a12.27,12.27,0,0,0,3.43,8.32,20.29,20.29,0,0,1-3.24,4.93.74.74,0,0,0-.13.79.71.71,0,0,0,.66.43,15.89,15.89,0,0,0,8-2.26,23,23,0,0,0,10,2.26C467,389.35,475.38,382.88,475.38,374.88Zm11,19.9a12.25,12.25,0,0,0,3.43-8.32c0-6-4.83-11.23-11.68-13.39a13.53,13.53,0,0,1,.12,1.81c0,9.58-9.73,17.37-21.68,17.37-1,0-1.92-.08-2.86-.17,2.85,5.2,9.53,8.85,17.31,8.85a22.83,22.83,0,0,0,10.06-2.26,15.86,15.86,0,0,0,8,2.26.72.72,0,0,0,.52-1.22A20.5,20.5,0,0,1,486.4,394.78Z"/></g></g></svg>