<svg xmlns="http://www.w3.org/2000/svg" xmlns:xlink="http://www.w3.org/1999/xlink" viewBox="0 0 581 450"><defs><style>.cls-1{fill:#e9f0f8;}.cls-2{fill:#eaeef9;}.cls-3{fill:#06afea;}.cls-4{opacity:0.67;isolation:isolate;fill:url(#linear-gradient);}.cls-5{fill:#fff;}.cls-6{clip-path:url(#clip-path);}.cls-7{fill:#1c3754;}.cls-8{fill:url(#linear-gradient-2);}.cls-9{fill:#e3eaf2;}.cls-10{fill:url(#linear-gradient-3);}.cls-11{clip-path:url(#clip-path-2);}.cls-12{fill:url(#linear-gradient-4);}.cls-13{fill:url(#linear-gradient-5);}.cls-14{clip-path:url(#clip-path-3);}.cls-15{fill:#fc0;}.cls-16{fill:url(#linear-gradient-6);}.cls-17{fill:#252e48;}.cls-18{fill:url(#linear-gradient-7);}.cls-19{fill:url(#linear-gradient-8);}</style><linearGradient id="linear-gradient" x1="442.48" y1="-373.88" x2="477.06" y2="-408.34" gradientTransform="matrix(1, 0, 0, -1, 0, -268.19)" gradientUnits="userSpaceOnUse"><stop offset="0" stop-color="#038fdb"/><stop offset="1" stop-color="#06afea" stop-opacity="0"/></linearGradient><clipPath id="clip-path"><ellipse class="cls-1" cx="117.53" cy="121.04" rx="25.55" ry="25.62"/></clipPath><linearGradient id="linear-gradient-2" x1="117.86" y1="135.11" x2="117.77" y2="115.58" gradientUnits="userSpaceOnUse"><stop offset="0" stop-color="#fff"/><stop offset="0.99" stop-color="#ced5e6"/></linearGradient><linearGradient id="linear-gradient-3" x1="158.98" y1="109.75" x2="206.25" y2="109.75" gradientUnits="userSpaceOnUse"><stop offset="0" stop-color="#ffd9b5"/><stop offset="1" stop-color="#ffd900"/></linearGradient><clipPath id="clip-path-2"><ellipse class="cls-1" cx="117.53" cy="358.83" rx="25.55" ry="25.62"/></clipPath><linearGradient id="linear-gradient-4" x1="117.86" y1="372.89" x2="117.77" y2="353.37" xlink:href="#linear-gradient-2"/><linearGradient id="linear-gradient-5" x1="158.98" y1="347.53" x2="206.25" y2="347.53" xlink:href="#linear-gradient-3"/><clipPath id="clip-path-3"><path class="cls-1" d="M495.57,239.39a25.38,25.38,0,0,1-8.33,19,27.33,27.33,0,0,1-4.51,3.31,25,25,0,0,1-13,3.48,25.48,25.48,0,0,1-13-3.48c-.52-.34-1.21-.7-1.73-1.05a25.58,25.58,0,0,1-11.1-21.22,25.85,25.85,0,1,1,51.69,0Z"/></clipPath><linearGradient id="linear-gradient-6" x1="470.43" y1="-517.4" x2="470.43" y2="-515.47" gradientTransform="matrix(1, 0, 0, -1, 0, -268.19)" gradientUnits="userSpaceOnUse"><stop offset="0" stop-color="#fff"/><stop offset="0.99" stop-color="#e6edf7"/></linearGradient><linearGradient id="linear-gradient-7" x1="212.7" y1="223.81" x2="259.98" y2="223.81" xlink:href="#linear-gradient-3"/><linearGradient id="linear-gradient-8" x1="54.91" y1="250.22" x2="92.4" y2="281.95" gradientUnits="userSpaceOnUse"><stop offset="0" stop-color="#e2b700"/><stop offset="1" stop-color="#fc0"/></linearGradient></defs><g id="Layer_2" data-name="Layer 2"><g id="Layer_1-2" data-name="Layer 1"><path class="cls-2" d="M270.6,434.72c107.66,0,194.94-87.38,194.94-195.17S378.26,44.37,270.6,44.37s-195,87.38-195,195.18S162.93,434.72,270.6,434.72Z"/><path class="cls-2" d="M55.12,449.35a2.2,2.2,0,0,1-1.56.65c-5.45,0-7.65-4.09-9.26-7.08-1.44-2.68-2.17-3.77-3.58-3.77a2.22,2.22,0,0,1,0-4.43c4.19,0,6,3.38,7.47,6.09,1.63,3,2.69,4.76,5.37,4.76a2.21,2.21,0,0,1,1.56,3.78Z"/><path class="cls-2" d="M29.45,449.35a2.22,2.22,0,0,1-1.57.65c-5.44,0-7.65-4.09-9.26-7.08-1.44-2.68-2.16-3.77-3.57-3.77a2.22,2.22,0,0,1,0-4.43c4.18,0,6,3.38,7.46,6.09,1.64,3,2.69,4.76,5.37,4.76a2.21,2.21,0,0,1,2.21,2.22A2.19,2.19,0,0,1,29.45,449.35Z"/><path class="cls-2" d="M34.06,447.48A8.33,8.33,0,0,1,27.88,450a2.22,2.22,0,0,1,0-4.43c2.68,0,3.79-1.81,5.38-4.76,1.46-2.71,3.28-6.09,7.46-6.09a2.22,2.22,0,0,1,0,4.43c-1.4,0-2.13,1.09-3.57,3.77A19.34,19.34,0,0,1,34.06,447.48Z"/><path class="cls-2" d="M8.38,447.48A8.29,8.29,0,0,1,2.21,450a2.22,2.22,0,0,1,0-4.43c2.68,0,3.78-1.81,5.37-4.76,1.47-2.71,3.29-6.09,7.47-6.09a2.22,2.22,0,0,1,0,4.43c-1.41,0-2.14,1.09-3.58,3.77A19,19,0,0,1,8.38,447.48Z"/><path class="cls-2" d="M105.71,449.35a2.2,2.2,0,0,1-1.56.65c-5.45,0-7.65-4.09-9.26-7.08-1.44-2.68-2.17-3.77-3.58-3.77a2.22,2.22,0,0,1,0-4.43c4.18,0,6,3.38,7.46,6.09,1.64,3,2.7,4.76,5.38,4.76a2.21,2.21,0,0,1,1.56,3.78Z"/><path class="cls-2" d="M80,449.35a2.2,2.2,0,0,1-1.56.65c-5.45,0-7.65-4.09-9.26-7.08-1.44-2.68-2.17-3.77-3.58-3.77a2.22,2.22,0,0,1,0-4.43c4.19,0,6,3.38,7.47,6.09,1.63,3,2.69,4.76,5.37,4.76A2.21,2.21,0,0,1,80,449.35Z"/><path class="cls-2" d="M84.64,447.48A8.29,8.29,0,0,1,78.47,450a2.22,2.22,0,0,1,0-4.43c2.68,0,3.79-1.81,5.38-4.76,1.46-2.71,3.28-6.09,7.46-6.09a2.22,2.22,0,0,1,0,4.43c-1.41,0-2.13,1.09-3.58,3.77A18.75,18.75,0,0,1,84.64,447.48Z"/><path class="cls-2" d="M59,447.48A8.33,8.33,0,0,1,52.79,450a2.22,2.22,0,0,1,0-4.43c2.67,0,3.78-1.81,5.37-4.76,1.46-2.71,3.28-6.09,7.46-6.09a2.22,2.22,0,0,1,0,4.43c-1.4,0-2.13,1.09-3.57,3.77A19.34,19.34,0,0,1,59,447.48Z"/><path class="cls-2" d="M135.47,24.15a2.45,2.45,0,0,1-1.69-.67L114,4.89a2.47,2.47,0,0,1,3.37-3.61l19.78,18.59a2.48,2.48,0,0,1-1.69,4.28Z"/><path class="cls-2" d="M116.31,24.77a2.45,2.45,0,0,1-1.69-.67,2.48,2.48,0,0,1-.11-3.49L133.05.78a2.47,2.47,0,0,1,3.6,3.38L118.11,24A2.47,2.47,0,0,1,116.31,24.77Z"/><path class="cls-2" d="M545.32,162.43a1.9,1.9,0,0,1,.78-.26l32.74-3.36a2,2,0,0,1,2,2.76l-6.74,15.06h0l-6.73,15.05A2,2,0,0,1,564,192l-19.27-26.75a2,2,0,0,1-.2-1.95A1.87,1.87,0,0,1,545.32,162.43Zm30.54.64-26,2.67L565.17,187Z"/><path class="cls-2" d="M358.9,58a6.81,6.81,0,1,0-6.58-6.8A6.67,6.67,0,0,0,358.9,58Z"/><path class="cls-2" d="M429.72,416.28a15.59,15.59,0,0,0,.95-21.49,14.37,14.37,0,0,0-20.8-1,15.5,15.5,0,0,0-.91,21.45A14.36,14.36,0,0,0,429.72,416.28Z"/><path class="cls-3" d="M489.6,117.47a34.36,34.36,0,0,1-1.91,6.6,38.67,38.67,0,0,1-29.62,23.85,39.84,39.84,0,0,1-14.18-.23,38.64,38.64,0,0,1-29.83-45.76c4.44-20.87,24.75-34.49,45.49-30A36.86,36.86,0,0,1,479,82.55,37.27,37.27,0,0,1,489.6,117.47Z"/><path class="cls-4" d="M487.67,124A38.68,38.68,0,0,1,458,147.89L437,113.17,439,96a7.69,7.69,0,0,1,8.9-.15L454.54,99q9.48,7.32,19,14.63Z"/><path class="cls-5" d="M473.14,111.56,455.86,94.24a3.83,3.83,0,0,0-2.72-1.13H439.69A3.84,3.84,0,0,0,435.85,97v13.49a3.8,3.8,0,0,0,1.13,2.72l17.3,17.34a3.81,3.81,0,0,0,5.42,0L473.15,117a3.86,3.86,0,0,0,0-5.47Zm-30.56-8.82a2.89,2.89,0,1,1,2.88-2.89A2.89,2.89,0,0,1,442.58,102.74Z"/><path class="cls-5" d="M68.79,88.84v64.4a14.05,14.05,0,0,0,4.28,10.43,13.69,13.69,0,0,0,9.28,3.58H382.1c.84,0,7.37-.26,11.35-5.69a14.15,14.15,0,0,0,2.63-8.32V88.84c0-.87-.37-7.47-5.84-11.42a14.06,14.06,0,0,0-7.92-2.59h-300a14.41,14.41,0,0,0-9.13,3.85A14.64,14.64,0,0,0,68.79,88.84Z"/><ellipse class="cls-1" cx="117.53" cy="121.04" rx="25.55" ry="25.62"/><g class="cls-6"><path class="cls-5" d="M136.4,139.66l-1,1a26.4,26.4,0,0,1-18.13,7A26.93,26.93,0,0,1,102.11,143a25.92,25.92,0,0,1-3.19-2.65c.21-.19.53-.45.94-.76a19,19,0,0,1,5.22-2.5c1-.37,2.59-1,4.73-1.8a3.09,3.09,0,0,0,.63-.52,3.77,3.77,0,0,0,.41-.59,5.37,5.37,0,0,0,.32-.63,2.1,2.1,0,0,0,.21-1.16V127l-.21-.32a6,6,0,0,1-.84-2.5,1.18,1.18,0,0,1-.77-.09c-.58-.29-.47-.92-.88-3.85-.08-.54-.18-1.18.21-1.58a1.18,1.18,0,0,1,.55-.29l.17-.58a15.1,15.1,0,0,1-1.44-6.27,5,5,0,0,1,.37-1.93,5.2,5.2,0,0,1,2.34-2.49c-.25-.65-.51-1.3-.78-2l-.24-.57a20,20,0,0,0,6.89.62,10.17,10.17,0,0,1,2.94-.11,8,8,0,0,1,4.78,3.26,5,5,0,0,1,.57.24,4.27,4.27,0,0,1,.44.26A4.29,4.29,0,0,1,128,112.1c.46,2.49-.88,5.82-1.12,6.39v.11a.11.11,0,0,0,0,.08.12.12,0,0,0,.07,0c.42.21.52.53.31,1.58-.31,2.73-.21,4.3-1.58,4a8.88,8.88,0,0,1-1.11,2.26c-.08.12-.17.25-.26.36l0,6.2a1.85,1.85,0,0,0,.39.84l.32.31.31.28c.37.31.78.62.85.67a61.63,61.63,0,0,0,6.6,2.72A21.19,21.19,0,0,1,136.4,139.66Z"/><path class="cls-3" d="M139.1,147.37c-4.75,4.41-14.76.42-21.82.42-5.58,0-17.28,4.41-21.6,1.47-.85-.63.21-3,.52-3.78a31.35,31.35,0,0,1,1.8-4.31c1.58-3,8.85-4.51,11.8-6.09h.1a10.14,10.14,0,0,0,16.34.11h.1c9.8,4,10.44,3.46,11.7,7.14C138.25,143,139.52,147,139.1,147.37Z"/><path class="cls-7" d="M126.87,118.6a10.14,10.14,0,0,0-.42-2.1c0-.11-.07-.21-.11-.32-1-2.1-3.47-3-5.69-3.15-5.79-.31-6.32.84-8.22-.84a3.94,3.94,0,0,1-.21,3.89,4.49,4.49,0,0,1-2.84,2c-2.64-6-1.37-9.76,1.26-11.13a10.78,10.78,0,0,1-1-2.52s5.59,1,7.49.53c2.42-.53,6.21.1,7.58,3.36,2.32.94,3.27,2.41,3.48,4C128.66,114.82,127.19,117.55,126.87,118.6Z"/><path class="cls-8" d="M111.38,132.56V127l.39.35a8,8,0,0,0,.66.49l4.22,2.94a2.57,2.57,0,0,0,3.37,0l3-2.65,1.3-1.24s0,3.93,0,4v2.23l-13,0,0-.22A1.94,1.94,0,0,0,111.38,132.56Z"/></g><path class="cls-9" d="M371.65,112.37H223.71a2.79,2.79,0,0,1-2.6-2.62,2.82,2.82,0,0,1,2.6-2.62H371.65a2.83,2.83,0,0,1,2.61,2.62A2.8,2.8,0,0,1,371.65,112.37Z"/><path class="cls-10" d="M203.65,112.37H161.58a2.78,2.78,0,0,1-2.6-2.62,2.81,2.81,0,0,1,2.6-2.62h42.07a2.81,2.81,0,0,1,2.6,2.62A2.49,2.49,0,0,1,203.65,112.37Z"/><path class="cls-9" d="M371.65,122.86H161.58a2.79,2.79,0,0,0-2.6,2.63,2.82,2.82,0,0,0,2.6,2.62H371.65c2.09,0,2.61-1.51,2.61-2.8A2.48,2.48,0,0,0,371.65,122.86Z"/><path class="cls-9" d="M256.72,143.36H161.6a2.6,2.6,0,1,1,0-5.2h95.12a2.6,2.6,0,1,1,0,5.2Z"/><path class="cls-5" d="M68.79,326.63V391a14,14,0,0,0,4.28,10.42A13.78,13.78,0,0,0,82.35,405H382.1c.84,0,7.37-.27,11.35-5.7a14.14,14.14,0,0,0,2.63-8.31v-64.4c0-.88-.37-7.47-5.84-11.43a14.11,14.11,0,0,0-7.92-2.58h-300a14.38,14.38,0,0,0-9.13,3.84A14.65,14.65,0,0,0,68.79,326.63Z"/><ellipse class="cls-1" cx="117.53" cy="358.83" rx="25.55" ry="25.62"/><g class="cls-11"><path class="cls-5" d="M136.4,377.45l-1,1a26.4,26.4,0,0,1-18.13,7,27,27,0,0,1-15.17-4.73,25,25,0,0,1-3.19-2.65c.21-.18.53-.45.94-.75a19,19,0,0,1,5.22-2.51c1-.36,2.59-1,4.73-1.79a3.08,3.08,0,0,0,.63-.53,3.77,3.77,0,0,0,.41-.59,4.16,4.16,0,0,0,.32-.63,2.05,2.05,0,0,0,.21-1.15v-5.36l-.21-.31a6.06,6.06,0,0,1-.84-2.5,1.25,1.25,0,0,1-.77-.09c-.58-.29-.47-.93-.88-3.86a1.84,1.84,0,0,1,.21-1.58,1.07,1.07,0,0,1,.55-.28l.17-.58a15.18,15.18,0,0,1-1.44-6.27,5.08,5.08,0,0,1,.37-1.94,5.25,5.25,0,0,1,2.34-2.49q-.37-1-.78-1.95l-.24-.58a20.09,20.09,0,0,0,6.89.63,10.19,10.19,0,0,1,2.94-.12,8,8,0,0,1,4.78,3.27,2.92,2.92,0,0,1,.57.24,4.31,4.31,0,0,1,.44.25,4.29,4.29,0,0,1,2.52,3.26c.46,2.5-.88,5.82-1.12,6.39v.11a.11.11,0,0,0,0,.09.12.12,0,0,0,.07,0c.42.21.52.52.31,1.57-.31,2.73-.21,4.31-1.58,4a8.72,8.72,0,0,1-1.11,2.26c-.08.13-.17.25-.26.37l0,6.19a1.85,1.85,0,0,0,.39.84c.08.09.22.23.32.32s.19.17.31.27c.37.31.78.62.85.67a61.63,61.63,0,0,0,6.6,2.72A22.23,22.23,0,0,1,136.4,377.45Z"/><path class="cls-3" d="M139.1,385.15c-4.75,4.41-14.76.42-21.82.42-5.58,0-17.28,4.41-21.6,1.47-.85-.63.21-3,.52-3.78A30.71,30.71,0,0,1,98,379c1.58-3,8.85-4.52,11.8-6.09h.1a10.14,10.14,0,0,0,16.34.1h.1c9.8,4,10.44,3.47,11.7,7.14C138.25,380.74,139.52,384.73,139.1,385.15Z"/><path class="cls-7" d="M126.87,356.38a10.27,10.27,0,0,0-.42-2.1,2.83,2.83,0,0,0-.11-.31c-1-2.1-3.47-3.05-5.69-3.15-5.79-.32-6.32.84-8.22-.84a3.92,3.92,0,0,1-.21,3.88,4.5,4.5,0,0,1-2.84,2c-2.64-6-1.37-9.77,1.26-11.13a11,11,0,0,1-1-2.52s5.59.94,7.49.52c2.42-.52,6.21.11,7.58,3.36,2.32,1,3.27,2.42,3.48,4C128.66,352.6,127.19,355.33,126.87,356.38Z"/><path class="cls-12" d="M111.38,370.35v-5.57c.12.12.25.23.39.35a8,8,0,0,0,.66.49l4.22,2.94a2.57,2.57,0,0,0,3.37,0l3-2.65,1.3-1.23s0,3.92,0,4v2.23l-13,0,0-.22A1.89,1.89,0,0,0,111.38,370.35Z"/></g><path class="cls-9" d="M371.65,350.16H223.71a2.79,2.79,0,0,1-2.6-2.63,2.82,2.82,0,0,1,2.6-2.62H371.65a2.83,2.83,0,0,1,2.61,2.62A2.8,2.8,0,0,1,371.65,350.16Z"/><path class="cls-13" d="M203.65,350.16H161.58a2.78,2.78,0,0,1-2.6-2.63,2.81,2.81,0,0,1,2.6-2.62h42.07a2.81,2.81,0,0,1,2.6,2.62A2.5,2.5,0,0,1,203.65,350.16Z"/><path class="cls-9" d="M371.65,360.65H161.58a2.79,2.79,0,0,0-2.6,2.62,2.82,2.82,0,0,0,2.6,2.62H371.65c2.09,0,2.61-1.5,2.61-2.79A2.47,2.47,0,0,0,371.65,360.65Z"/><path class="cls-9" d="M256.72,381.14H161.6a2.6,2.6,0,1,1,0-5.2h95.12a2.6,2.6,0,1,1,0,5.2Z"/><path class="cls-5" d="M188.68,207.1v64.4A14,14,0,0,0,193,281.93a13.69,13.69,0,0,0,9.28,3.58H502c.83,0,7.36-.26,11.34-5.69A14.09,14.09,0,0,0,516,271.5V207.1c0-.88-.37-7.47-5.84-11.42a14.06,14.06,0,0,0-7.91-2.59h-300a14.13,14.13,0,0,0-13.55,14Z"/><path class="cls-1" d="M495.57,239.39a25.38,25.38,0,0,1-8.33,19,27.33,27.33,0,0,1-4.51,3.31,25,25,0,0,1-13,3.48,25.48,25.48,0,0,1-13-3.48c-.52-.34-1.21-.7-1.73-1.05a25.58,25.58,0,0,1-11.1-21.22,25.85,25.85,0,1,1,51.69,0Z"/><g class="cls-14"><path class="cls-5" d="M455.15,260.61v-.34a12.47,12.47,0,0,1,1.28-3.83,8.78,8.78,0,0,1,2.54-3.18,7.84,7.84,0,0,1,1.57-.91c-2.78-1-4.71-3-4.74-5a4.51,4.51,0,0,1,.56-2.08c1.05-2,3.26-2.92,4.37-3.37.38-.15.69-.25.89-.31l.47-.24c-.06-.3-.13-.6-.19-.89a2.68,2.68,0,0,1-1.17-.77,3.8,3.8,0,0,1-.55-1,2.7,2.7,0,0,1,.18-2.07,1.24,1.24,0,0,0,.2-.62,1,1,0,0,0,0-.26v-2.95a9.45,9.45,0,0,1,.52-2.61,11.6,11.6,0,0,1,3.25-4.37,10.89,10.89,0,0,1,8.45-2.24,8.66,8.66,0,0,1,3.08,1.07,7.43,7.43,0,0,1,.83.54l1.85,1.69a8.17,8.17,0,0,1,1.67,2.22c.14.28.26.56.36.82a15.94,15.94,0,0,1,1,3.39v0c0,.27,0,.48,0,.56a11.31,11.31,0,0,0,.27,2c.13.45.16.35.21.62a3,3,0,0,1-.55,2.18,3.46,3.46,0,0,1-1.53,1.2,11.68,11.68,0,0,1-1.74,4,17.6,17.6,0,0,1-3,3.12v3.65s.18.35,1.91.35h.52l1.09,0a9.64,9.64,0,0,1,3.6.94,10.49,10.49,0,0,1,5.07,5.88,22.46,22.46,0,0,1-4.38,3.24Z"/><path class="cls-15" d="M487.64,258a27.4,27.4,0,0,1-4.91,3.68,26.6,26.6,0,0,1-3.81,1.84,25.53,25.53,0,0,1-9.2,1.64,27.87,27.87,0,0,1-13-3.48c-.76-.42-1.36-.81-1.77-1.07l0-.32a12.34,12.34,0,0,1,1.28-3.83,8.5,8.5,0,0,1,2.71-3.31,7.23,7.23,0,0,1,1.32-.72l2.32-2.06a9.14,9.14,0,0,0,7.11,3.83h.52a8.89,8.89,0,0,0,5-1.48A7.72,7.72,0,0,0,477,251h1.59a9.31,9.31,0,0,1,3.79.87,10,10,0,0,1,4.86,5.29l.23.43C487.53,257.75,487.59,257.86,487.64,258Z"/><path class="cls-16" d="M475.1,247.21l.17-.17v3.65l-9.69.19c0-1.42,0-2.85.07-4.27a6,6,0,0,0,1.19.91,7.82,7.82,0,0,0,.91.44,7.18,7.18,0,0,0,1.84.52A8.4,8.4,0,0,0,475.1,247.21Z"/><path class="cls-7" d="M481.52,233.29a15,15,0,0,1-6.25.88,14.64,14.64,0,0,1-9-3.83,9.57,9.57,0,0,1-5.2,5.22,2.94,2.94,0,0,1-.87.34v-.17a24.34,24.34,0,0,1,.52-5.22c1-3.9,5.33-6.08,5.58-6.2a10.18,10.18,0,0,1,8.79-.22A11,11,0,0,1,480.3,229a11.38,11.38,0,0,1,1.22,3.64Z"/><path class="cls-17" d="M468.86,257a3.63,3.63,0,0,1-1.74,1,7,7,0,0,1-2.25.06c1.38-1.38.69-6.09-4.51-5.57-7.12-1.39-6.25-8.7.52-10.78l1.21-.34.09.23a19.59,19.59,0,0,0,1,1.9,18.8,18.8,0,0,0,1.18,1.69,2.25,2.25,0,0,0-1,1.6c0,1.36,2.3,1.57,4.1,3.66S470,255.58,468.86,257Z"/><path class="cls-1" d="M464.35,245.13a8.81,8.81,0,0,0,1.3,1.48c0,.74,0,1.47,0,2.2l-.42-.25-.39-.25c-.73-.48-1.11-.72-1.26-1a1.25,1.25,0,0,1-.18-.58,1.36,1.36,0,0,1,.14-.65,3.35,3.35,0,0,1,.41-.54A3.25,3.25,0,0,1,464.35,245.13Z"/></g><path class="cls-9" d="M425.38,226.43H277.44a2.79,2.79,0,0,1-2.6-2.62,2.82,2.82,0,0,1,2.6-2.62H425.38a2.82,2.82,0,0,1,2.6,2.62A2.79,2.79,0,0,1,425.38,226.43Z"/><path class="cls-18" d="M257.38,226.43H215.31a2.79,2.79,0,0,1-2.61-2.62,2.82,2.82,0,0,1,2.61-2.62h42.07a2.82,2.82,0,0,1,2.6,2.62A2.49,2.49,0,0,1,257.38,226.43Z"/><path class="cls-9" d="M425.38,236.92H215.31a2.8,2.8,0,0,0-2.61,2.62,2.84,2.84,0,0,0,2.61,2.63H425.38c2.08,0,2.6-1.51,2.6-2.8A2.47,2.47,0,0,0,425.38,236.92Z"/><path class="cls-9" d="M310.45,257.42H215.33a2.6,2.6,0,1,1,0-5.2h95.12a2.6,2.6,0,1,1,0,5.2Z"/><path class="cls-15" d="M112.34,268.57a44.44,44.44,0,0,1-87-18.1c5.13-23.95,28.6-39.59,52.56-34.47a42.63,42.63,0,0,1,22.48,12.23A44.59,44.59,0,0,1,112.34,268.57Z"/><path class="cls-19" d="M106.67,269.49c0,1.54-11.81,22-25.17,24.23-2.63.44-6.18,1.86-8.81,1.64L53.36,273.92a43.24,43.24,0,0,1-4.12-15.29,42.61,42.61,0,0,1,.39-9.83L66,245.28a34,34,0,0,0,20.55,1.61Z"/><path class="cls-5" d="M88.6,254.27a.48.48,0,0,1,.78.38V271.1A3.86,3.86,0,0,1,85.52,275H52.05a3.86,3.86,0,0,1-3.86-3.86V254.66a.48.48,0,0,1,.78-.38c1.81,1.4,4.19,3.18,12.4,9.14,1.7,1.24,4.56,3.84,7.42,3.83s5.79-2.64,7.42-3.83C84.42,257.46,86.8,255.67,88.6,254.27ZM68.79,264.66c1.86,0,4.55-2.34,5.9-3.33,10.68-7.74,11.49-8.42,14-10.35a1.92,1.92,0,0,0,.74-1.52v-1.53a3.86,3.86,0,0,0-3.86-3.86H52.05a3.86,3.86,0,0,0-3.86,3.86v1.53a2,2,0,0,0,.74,1.52c2.46,1.92,3.28,2.61,14,10.35,1.35,1,4,3.37,5.91,3.33Z"/></g></g></svg>