<svg xmlns="http://www.w3.org/2000/svg" xmlns:xlink="http://www.w3.org/1999/xlink" viewBox="0 0 581 450"><defs><style>.cls-1{fill:#eaeef9;}.cls-2{fill:#d5dae8;}.cls-3{fill:url(#linear-gradient);}.cls-4{fill:#fff;}.cls-5{fill:#f3f5fa;}.cls-6{fill:#172d45;opacity:0.3;}.cls-10,.cls-6{isolation:isolate;}.cls-7{fill:#1c3754;}.cls-8{fill:#fc0;}.cls-9{fill:#06afea;}.cls-10{opacity:0.67;fill:url(#linear-gradient-2);}.cls-11{fill:url(#linear-gradient-3);}</style><linearGradient id="linear-gradient" x1="83.1" y1="-2828.22" x2="177.41" y2="-2828.22" gradientTransform="matrix(1, 0, 0, -1, 0, -2589.48)" gradientUnits="userSpaceOnUse"><stop offset="0" stop-color="#d5dae8"/><stop offset="1" stop-color="#9aa3ba"/></linearGradient><linearGradient id="linear-gradient-2" x1="63.4" y1="-2852.3" x2="79.2" y2="-2868.05" gradientTransform="matrix(1, 0, 0, -1, 0, -2589.48)" gradientUnits="userSpaceOnUse"><stop offset="0" stop-color="#038fdb"/><stop offset="1" stop-color="#06afea" stop-opacity="0"/></linearGradient><linearGradient id="linear-gradient-3" x1="472.8" y1="-2743.9" x2="499.24" y2="-2770.28" gradientTransform="matrix(1, 0, 0, -1, 0, -2589.48)" gradientUnits="userSpaceOnUse"><stop offset="0" stop-color="#e2b700"/><stop offset="1" stop-color="#fc0"/></linearGradient></defs><g id="Layer_2" data-name="Layer 2"><g id="Layer_1-2" data-name="Layer 1"><path class="cls-1" d="M179.42,446a15.43,15.43,0,0,0,1-21.73,15.26,15.26,0,0,0-21.63-1,15.43,15.43,0,0,0-1,21.73A15.26,15.26,0,0,0,179.42,446Z"/><path class="cls-1" d="M245.15,13.43A6.88,6.88,0,1,0,236.52,9,6.89,6.89,0,0,0,245.15,13.43Z"/><path class="cls-1" d="M280.33,425.11c104.82,0,189.79-84.93,189.79-189.71s-85-189.71-189.79-189.71S90.55,130.63,90.55,235.4,175.52,425.11,280.33,425.11Z"/><path class="cls-1" d="M454.46,69.1a6.5,6.5,0,0,0,.42-9.15,6.46,6.46,0,1,0-.42,9.15Z"/><path class="cls-2" d="M375.72,384H53.65L94.57,93.51H439Z"/><path class="cls-3" d="M177.23,384H106a23,23,0,0,1-22.85-24.11L94.57,93.51h17.14Z"/><path class="cls-4" d="M514.4,384h-344l-58.29-223.1-.38-1.53L94.57,93.51H439l14.86,57,2.29,8.8.38,1.53Z"/><path class="cls-5" d="M456.11,159.33H111.71L94.57,93.51H439l14.86,57Z"/><path class="cls-6" d="M185.24,140.58A12.25,12.25,0,1,0,173,128.34,12.22,12.22,0,0,0,185.24,140.58Z"/><path class="cls-6" d="M386.39,140.58a12.25,12.25,0,1,0-12.19-12.24A12.22,12.22,0,0,0,386.39,140.58Z"/><path class="cls-7" d="M182.18,133.31a4.21,4.21,0,0,1,0-8.42c8.39,0,17.15-11.86,17.15-29.85V93.51c-.38-17.6-9.14-28.32-17.15-28.32-7.61,0-16,10.33-17.14,26.41h-8.76c1.15-19.9,12.19-34.83,25.53-34.83,14.09,0,25.14,16.46,25.9,37.51v1.15C208.09,116.47,196.66,133.31,182.18,133.31Z"/><path class="cls-7" d="M382.2,133.31a4.21,4.21,0,0,1,0-8.42c8.38,0,17.14-11.86,17.14-29.85V93.51c-.38-17.6-9.14-28.32-17.14-28.32-7.62,0-16,10.33-17.15,26.41h-8.76c1.14-19.9,12.19-34.83,25.53-34.83,14.09,0,25.14,16.46,25.9,37.51v1.15C408.1,116.47,396.67,133.31,382.2,133.31Z"/><path class="cls-2" d="M388.3,245.43a3.82,3.82,0,0,1-3.81-3.82,3.61,3.61,0,0,1,3.81-3.83h11.8a3.83,3.83,0,0,1,0,7.65Z"/><path class="cls-2" d="M226,353.35a4.58,4.58,0,0,1-3.81-2.68l-6.1-22.58H186a3.83,3.83,0,0,1,0-7.65h27.81l-9.53-33.68H175.33a3.82,3.82,0,0,1-3.81-3.82,3.61,3.61,0,0,1,3.81-3.83H202l-9.53-33.68H165a3.83,3.83,0,0,1-3.81-3.82,3.61,3.61,0,0,1,3.81-3.83h25.53l-9.52-33.68H154.76a3.82,3.82,0,0,1-3.81-3.82,3.61,3.61,0,0,1,3.81-3.83h24L175,182.67c-.38-1.91.76-4.21,2.67-4.59h1.14a4.59,4.59,0,0,1,3.81,2.68l4.57,15.69h30.48a3.83,3.83,0,0,1,0,7.65h-28.2L199,237.78h48l-15.24-55.11c-.38-1.91.76-4.21,2.67-4.59h1.14a4.58,4.58,0,0,1,3.81,2.68l4.58,15.69h16.38a3.61,3.61,0,0,1,3.81,3.83,3.83,3.83,0,0,1-3.81,3.82h-14.1l9.52,33.68H288.1a3.82,3.82,0,0,1,3.81,3.83,3.6,3.6,0,0,1-3.81,3.82H258l9.52,33.68h48.39l-21-75H284.67a3.83,3.83,0,0,1,0-7.65h8l-3.81-13.78c-.38-1.15,0-1.91.38-3.06a3.93,3.93,0,0,1,2.29-1.91h1.14a4.59,4.59,0,0,1,3.81,2.68l4.57,15.68h8a3.83,3.83,0,0,1,0,7.66h-5.71l9.52,33.68h48.38l-9.52-33.68H327a3.83,3.83,0,0,1,0-7.66h21.33l-3.81-13.77c-.38-1.91.76-4.21,2.67-4.59h1.14a4.58,4.58,0,0,1,3.81,2.68l4.57,15.68h48.39l-3.81-13.77c-.38-1.91.76-4.21,2.66-4.59h1.15a4.61,4.61,0,0,1,3.81,2.68l4.57,15.68h29.71a3.83,3.83,0,0,1,0,7.66H414.58l9.52,33.68h28.58a3.83,3.83,0,0,1,3.81,3.82,3.61,3.61,0,0,1-3.81,3.83H426.39l9.53,33.68h27.42a3.83,3.83,0,0,1,3.82,3.82,3.61,3.61,0,0,1-3.82,3.83H438.2l9.53,33.67h25.9a3.83,3.83,0,0,1,0,7.66h-24L455.34,348c.38,1.91-.76,4.21-2.66,4.59h-1.15a4.58,4.58,0,0,1-3.8-2.68l-6.1-22.19H393.25l5.71,19.9c.38,1.15,0,1.91-.38,3.06a3.9,3.9,0,0,1-2.29,1.91h-1.14a4.59,4.59,0,0,1-3.81-2.68l-6.1-21.81H336.86l5.72,19.9c.38,1.91-.76,4.21-2.67,4.59h-1.14A4.58,4.58,0,0,1,335,349.9l-6.1-21.81H280.48l5.71,19.9c.39,1.91-.76,4.21-2.67,4.59h-1.14a4.61,4.61,0,0,1-3.81-2.68l-6.09-21.81H224.09l5.72,20.28c.38,1.15,0,1.91-.38,3.06a3.94,3.94,0,0,1-2.29,1.92Zm108.58-32.91H439.34l-9.52-33.68H381.43L384.87,299c.37,1.16,0,1.92-.38,3.07A4,4,0,0,1,382.2,304h-1.14a4.57,4.57,0,0,1-3.81-2.68l-3.81-14.16H359a3.82,3.82,0,0,1-3.81-3.82,3.61,3.61,0,0,1,3.81-3.83h12.19l-9.53-33.67h-48l9.53,33.67H335a3.83,3.83,0,0,1,3.81,3.83,3.61,3.61,0,0,1-3.81,3.82h-9.91Zm-56.39,0h48.39l-9.53-33.68H268.67Zm-56.38,0h48.38l-9.52-33.68h-14.1a3.83,3.83,0,0,1,0-7.65h12.19l-9.52-33.68H200.85l9.53,33.68H223a3.83,3.83,0,0,1,0,7.65H212.67Zm157.72-41.33h48.38l-21-75H358.2Z"/><path class="cls-8" d="M254.57,223.24a41.57,41.57,0,0,0-6.47,26,46.2,46.2,0,0,0,9.14,24.87c5.33,6.89,12.95,12.63,21.33,14.93,8.39,2.67,17.53,2.29,25.91,0,8-2.68,15.24-8,19-15.31s4.19-16.07.38-23c-3.43-7.27-10.67-12.63-18.67-15.69-8-3.44-17.14-5-26.28-5.36a5.93,5.93,0,0,1,.38-11.86c10.28.76,20.57,2.3,30.09,6.51s19.05,11.09,24,21.81A36.06,36.06,0,0,1,336.86,263a37.46,37.46,0,0,1-4.57,16.07c-5.33,9.95-14.86,16.83-25.14,19.89a51.09,51.09,0,0,1-31.24-.76,52.48,52.48,0,0,1-24.77-18.75,53.37,53.37,0,0,1-9.9-29.08A50.55,50.55,0,0,1,250,220.94a3.35,3.35,0,0,1,4.19-.76C255,220.18,255.34,222.09,254.57,223.24Z"/><path class="cls-9" d="M436.72,391.1c.83-3.06,3.78-.77,7.53-6.91,4.4-7.47,3.19-16.16,13.59-20.49a15.7,15.7,0,0,1,2.59-.79c.36-.21.71-.41.79-.69a5.76,5.76,0,1,1,11.37,1.91l-.15.55a1.53,1.53,0,0,0,.25,1.27c5.26,4.71,6.32,10.68,4.78,17.43-3,15.31,1,14,2.21,17,1,2.95-2.26,5-5.59,4.15C440.57,396.62,435.51,395.54,436.72,391.1Z"/><path class="cls-9" d="M452.27,409.37a5.33,5.33,0,0,1-1.23-7.5c.08-.29.43-.49,1-.34l8.86,2.42c.28.07.76.5.68.78a5.89,5.89,0,0,1-3,5.46C456.35,410.78,454,410.73,452.27,409.37Z"/><path class="cls-9" d="M97.42,264.48c-.2.6-.2,1.41-.4,2a26.2,26.2,0,0,1-2.19,6,37.59,37.59,0,0,1-23.94,20.84,6.18,6.18,0,0,1-1.6.4,37,37,0,0,1-17,.4,38.27,38.27,0,1,1,34.72-64.53A38.65,38.65,0,0,1,97.42,264.48Z"/><path class="cls-10" d="M94.8,272.48a37.56,37.56,0,0,1-23.94,20.84L51.25,271.9l4.56-3,5-10.41,7.71-13.62Z"/><path class="cls-4" d="M70,246a2,2,0,0,0,1.74-1.64l0-2.1a1.44,1.44,0,0,0-1.46-1.43l-19.87.05A1.46,1.46,0,0,0,49,242.31l0,2.09a1.43,1.43,0,0,0,1.45,1.43,11.45,11.45,0,0,0,3.47,7.74l2.74,2.55a.63.63,0,0,1,0,1.05l-3,2.37A10.28,10.28,0,0,0,49.88,267a1.45,1.45,0,0,0-1.43,1.47l0,2.09a1.67,1.67,0,0,0,1.57,2l19.87-.06A1.44,1.44,0,0,0,71.3,271l0-2.1a1.42,1.42,0,0,0-1.45-1.42A10.22,10.22,0,0,0,66.33,260l-3-2.62a.62.62,0,0,1,0-1l3-2.38A13,13,0,0,0,70,246Zm-6,5-3.34,2.79a.88.88,0,0,1-1.29-.07l-3.16-2.92a7,7,0,0,1-2.34-4,.93.93,0,0,1,.81-1.1l.24.06h11c.49.12.92.5.79,1l-.07.25A9,9,0,0,1,64,251Z"/><path class="cls-8" d="M514.37,158.3a65.49,65.49,0,0,1-.47,6.84,43.14,43.14,0,0,1-42.79,36.59,43.43,43.43,0,1,1,43.26-43.43Z"/><path class="cls-11" d="M513.9,165.14a42.92,42.92,0,0,1-27.27,33.76l-23.75-23.84.23-.95-13.4-13.45,29.63-11.33L487.1,138Z"/><path class="cls-4" d="M462.3,171.61a6.4,6.4,0,0,1,1.17-3.54c4.23-5.19,8.23-10.15,12.23-15.34,1.17-1.42-.24-2.13-1.18-1.42-1.41,1.18-13.64,11.57-15.28,13.22a1.45,1.45,0,0,1-.94.23c-2.59-.94-4.94-1.88-7.53-2.83a2.17,2.17,0,0,1-1.64-2.59,2.48,2.48,0,0,1,1.41-1.66c2.58-1.41,31.51-17.7,34.09-19.35a2.31,2.31,0,0,1,2.12-.24,1.58,1.58,0,0,1,.7,1.89c-.47,5.9-2.35,25-3.05,31.16-.24,1.65-.94,2.59-2.35,2.36a1.42,1.42,0,0,1-.95-.24c-3.05-1.18-6.34-2.36-9.4-3.54-.47-.23-.94-.23-1.18.24-5.17,5.19-5.64,5.19-6.34,5.43a2,2,0,0,1-2.35-1.42v-.47A2.55,2.55,0,0,0,462.3,171.61Z"/><path class="cls-1" d="M30.8,47.19a3.38,3.38,0,0,1-2.33-.93L1.08,20.55a3.42,3.42,0,0,1,4.67-5L33.14,41.28a3.42,3.42,0,0,1-2.34,5.91Z"/><path class="cls-1" d="M4.26,48.05a3.42,3.42,0,0,1-2.49-5.76L27.46,14.87a3.42,3.42,0,1,1,5,4.68L6.75,47A3.43,3.43,0,0,1,4.26,48.05Z"/><path class="cls-1" d="M569,333.45a12,12,0,1,1,12-12A12,12,0,0,1,569,333.45Zm0-20.74a8.74,8.74,0,1,0,8.73,8.74A8.75,8.75,0,0,0,569,312.71Z"/></g></g></svg>